<?xml version="1.0" encoding="utf-8"?>
<!-- Generator: Adobe Illustrator 16.0.0, SVG Export Plug-In . SVG Version: 6.00 Build 0)  -->
<!DOCTYPE svg PUBLIC "-//W3C//DTD SVG 1.1//EN" "http://www.w3.org/Graphics/SVG/1.1/DTD/svg11.dtd">
<svg version="1.1" id="Layer_1" xmlns="http://www.w3.org/2000/svg" xmlns:xlink="http://www.w3.org/1999/xlink" x="0px" y="0px"
	 width="468px" height="190px" viewBox="0 0 468 190" enable-background="new 0 0 468 190" xml:space="preserve">
<g id="Layer_1_3_">
	<g id="Layer_1_2_">
		<g id="Layer_2">
		</g>
		<g id="Layer_1_1_">
			<g id="UVQ131_1_">
				<g>
					<g>
						<path fill="none" d="M235,191c-76.667,0-153.333-0.029-230,0.096c-3.424,0.006-4.105-0.671-4.097-4.096
							c0.133-60.666,0.133-121.333,0-182C0.896,1.576,1.575,0.903,5,0.905c153.333,0.109,306.666,0.109,459.999,0
							c3.423-0.002,4.104,0.668,4.098,4.094c-0.134,60.667-0.134,121.333,0,182c0.013,3.424-0.671,4.103-4.097,4.099
							C388.334,190.971,311.667,191,235,191z M368.996,179.206c26.831,0,53.662,0.002,80.492-0.001
							c6.377-0.001,6.706-0.321,6.713-6.839c0.051-46.825,0.093-93.651,0.132-140.477c0.006-7.428-0.188-7.631-7.521-7.632
							c-51.149-0.007-102.303-0.004-153.451-0.004c-12.562,0-12.562,0-12.566,12.553c-0.005,8.646-1.15,9.856-9.756,9.856
							c-35.656,0.002-71.312-0.058-106.968-0.037c-15.758,0.009-15.946,0.068-15.547-15.838c0.125-4.985-1.172-6.619-6.35-6.581
							c-41.462,0.299-82.925,0.315-124.388,0.433c-5.462,0.015-6.478,1.052-6.442,6.957c0.285,47.146,0.646,94.292,0.854,141.439
							c0.021,4.768,1.726,6.324,6.52,6.266c18.995-0.232,37.996-0.095,56.994-0.096c22.998,0,45.996-0.006,68.994,0.006
							c2.389,0.001,4.482,0.303,4.587-3.387c0.209-7.377,1.603-8.449,9.013-8.451c22.661-0.008,45.321-0.025,67.981-0.025
							c15.326,0.002,30.652,0.01,45.98,0.047c6.246,0.021,7.903,1.342,8.517,7.6c0.377,3.883,2.479,4.277,5.723,4.271
							C315.335,179.163,342.166,179.205,368.996,179.206z"/>
						<path d="M368.996,179.205c-26.83,0-53.661-0.042-80.491,0.054c-3.243,0.013-5.346-0.387-5.723-4.271
							c-0.608-6.252-2.271-7.578-8.517-7.594c-15.328-0.039-30.654-0.047-45.98-0.047c-22.661,0-45.321,0.018-67.981,0.021
							c-7.41,0.002-8.803,1.071-9.013,8.448c-0.104,3.688-2.198,3.391-4.587,3.39c-22.998-0.015-45.996-0.006-68.994-0.006
							c-18.998,0.001-37.999-0.142-56.994,0.096c-4.794,0.062-6.499-1.498-6.52-6.267c-0.208-47.146-0.569-94.292-0.854-141.438
							c-0.036-5.905,0.98-6.942,6.442-6.957c41.463-0.117,82.926-0.134,124.388-0.433c5.178-0.038,6.475,1.596,6.35,6.581
							c-0.399,15.906-0.211,15.848,15.547,15.838c35.656-0.021,71.312,0.039,106.968,0.037c8.605,0,9.751-1.21,9.756-9.856
							c0.006-12.553,0.006-12.553,12.566-12.553c51.146,0,102.302-0.003,153.446,0.004c7.332,0.001,7.526,0.204,7.521,7.632
							c-0.039,46.826-0.081,93.652-0.132,140.479c-0.007,6.518-0.336,6.838-6.713,6.839
							C422.658,179.208,395.827,179.206,368.996,179.205z M217.905,157.738c18.147,0,36.293,0.012,54.439-0.006
							c8.051-0.006,10.613-2.289,10.744-10.129c0.15-9.146-0.013-18.293-0.039-27.438c-0.02-6.812-2.732-9.817-9.576-9.826
							c-36.953-0.051-73.906-0.03-110.859,0.074c-6.864,0.021-9.356,2.585-9.453,9.394c-0.133,9.318-0.065,18.646-0.002,27.965
							c0.051,7.568,2.531,9.959,10.306,9.975C181.611,157.77,199.758,157.75,217.905,157.738z M217.112,83.067
							c0-0.011,0-0.022,0-0.034c-1.498,0-2.995,0-4.493,0c-17.968,0-35.936-0.045-53.903,0.023
							c-6.033,0.023-7.526,1.683-7.604,7.776c-0.02,1.498-0.025,2.996-0.02,4.493c0.027,7.334,1.423,8.784,8.718,8.825
							c36.59,0.197,73.18,0.392,109.77,0.552c12.939,0.057,13.318-0.373,13.242-13.479c-0.039-6.552-1.612-8.14-8.303-8.148
							C255.384,83.052,236.248,83.067,217.112,83.067z M217.057,54.017c0-0.024,0-0.047,0-0.071
							c-19.473,0-38.946-0.021-58.419,0.013c-5.68,0.01-7.459,1.8-7.583,7.353c-0.033,1.498-0.022,2.996-0.01,4.494
							c0.066,8.282,0.952,9.143,9.285,9.159c25.629,0.051,51.259,0.117,76.888,0.164c12.482,0.022,24.964,0.048,37.445,0.007
							c6.413-0.021,7.882-1.526,8.104-7.949c0.053-1.497,0.133-2.994,0.131-4.491c-0.006-7.082-1.688-8.687-8.916-8.683
							C255.008,54.024,236.032,54.017,217.057,54.017z M81.513,63.971c0,0.009,0,0.019,0,0.028c-4.161,0-8.324-0.064-12.483,0.016
							c-4.976,0.096-6.92,1.963-7.05,6.977c-0.134,5.157-0.19,10.326,0.024,15.477c0.139,3.339-1.344,4.478-4.397,4.436
							c-4.659-0.064-9.318-0.051-13.977-0.076c-5.887-0.032-9.091,2.886-9.099,8.696c-0.011,7.982,0.146,15.977,0.354,23.961
							c0.15,5.758,3.01,8.498,8.693,8.529c4.494,0.021,9.007,0.219,13.476-0.133c4.301-0.328,5.465,1.402,5.142,5.43
							c-0.359,4.469-0.363,8.98-0.203,13.469c0.194,5.441,2.273,7.441,7.657,7.504c8.649,0.101,17.3-0.008,25.95,0.057
							c4.691,0.035,6.555-2.379,6.499-6.836c-0.058-4.66,0.188-9.328-0.005-13.979c-0.167-4.004,1.218-5.823,5.446-5.609
							c4.814,0.243,9.651,0.074,14.477,0.003c4.424-0.065,6.868-2.505,6.931-6.808c0.136-9.318,0.121-18.646-0.069-27.961
							c-0.083-4.072-2.247-6.424-6.677-6.285c-4.157,0.131-8.321,0.061-12.482,0.023c-7.562-0.067-7.574-0.084-7.629-7.444
							c-0.032-4.327,0.029-8.655-0.038-12.982c-0.066-4.252-2.348-6.423-6.557-6.479C90.834,63.924,86.173,63.971,81.513,63.971z
							 M356.756,134.504c0.053,0,0.104,0,0.156,0c0-6.811-0.096-13.621,0.033-20.428c0.087-4.6-1.783-6.625-6.536-6.553
							c-13.146,0.203-26.296,0.291-39.44,0.106c-4.836-0.062-6.64,2.062-6.59,6.521c0.154,13.652,0.337,27.308,0.413,40.957
							c0.022,3.965,1.688,5.707,5.74,5.681c13.493-0.101,26.989-0.046,40.481,0.007c3.979,0.018,5.773-1.884,5.752-5.8
							C356.725,148.167,356.756,141.335,356.756,134.504z M366.236,133.993c0,6.487,0.223,12.987-0.073,19.462
							c-0.216,4.734,1.497,6.553,6.285,6.488c12.972-0.176,25.953-0.201,38.922,0.09c5.035,0.113,6.417-2.326,6.422-6.612
							c0.014-13.31,0.007-26.616,0.075-39.925c0.02-3.76-1.656-5.362-5.438-5.337c-13.642,0.093-27.282,0.147-40.926-0.009
							c-4.003-0.045-5.319,1.728-5.288,5.379C366.283,120.35,366.236,127.172,366.236,133.993z"/>
						<path fill="none" d="M217.905,157.744c-18.147,0.006-36.294,0.023-54.44-0.003c-7.774-0.013-10.254-2.401-10.306-9.972
							c-0.063-9.32-0.131-18.646,0.002-27.965c0.097-6.812,2.589-9.373,9.453-9.396c36.953-0.104,73.906-0.125,110.859-0.074
							c6.844,0.014,9.557,3.018,9.576,9.826c0.026,9.146,0.189,18.296,0.039,27.438c-0.131,7.842-2.693,10.123-10.744,10.131
							C254.198,157.75,236.052,157.738,217.905,157.744z M187.504,142.262c4.329,0,8.66,0.104,12.985-0.025
							c4.787-0.143,7.833-3.332,7.77-7.868c-0.06-4.304-3.051-7.519-7.546-7.583c-8.822-0.141-17.648-0.143-26.47,0.002
							c-4.466,0.066-7.442,3.312-7.504,7.625c-0.064,4.523,3.007,7.711,7.78,7.834C178.845,142.354,183.176,142.266,187.504,142.262
							z M247.248,141.264c4.484,0,8.973,0.09,13.455-0.021c4.746-0.119,7.613-3.013,7.553-7.362
							c-0.058-4.13-2.857-7.043-7.301-7.104c-8.969-0.121-17.939-0.118-26.909,0c-4.441,0.062-7.242,2.973-7.301,7.104
							c-0.062,4.354,2.817,7.251,7.547,7.366C238.607,141.35,242.93,141.266,247.248,141.264z"/>
						<path fill="none" d="M217.112,83.067c19.136,0,38.271-0.015,57.408,0.008c6.689,0.008,8.268,1.596,8.307,8.148
							c0.072,13.106-0.307,13.536-13.242,13.479c-36.59-0.16-73.18-0.354-109.77-0.552c-7.295-0.041-8.691-1.49-8.718-8.825
							c-0.005-1.498,0-2.996,0.02-4.493c0.079-6.093,1.571-7.753,7.604-7.776c17.967-0.068,35.935-0.024,53.903-0.023
							c1.498,0,2.995,0,4.493,0C217.112,83.044,217.112,83.056,217.112,83.067z"/>
						<path fill="none" d="M217.057,54.017c18.975,0,37.951,0.007,56.925-0.004c7.229-0.004,8.91,1.601,8.916,8.683
							c0.002,1.497-0.078,2.994-0.131,4.491c-0.228,6.422-1.691,7.928-8.104,7.949c-12.481,0.041-24.963,0.016-37.445-0.007
							c-25.629-0.047-51.259-0.113-76.888-0.164c-8.333-0.017-9.219-0.877-9.285-9.159c-0.012-1.498-0.023-2.996,0.01-4.494
							c0.125-5.553,1.904-7.343,7.583-7.353c19.473-0.033,38.946-0.013,58.419-0.013C217.057,53.969,217.057,53.993,217.057,54.017z
							"/>
						<path fill="none" d="M81.513,63.971c4.661,0,9.322-0.047,13.981,0.014c4.209,0.056,6.491,2.227,6.557,6.479
							c0.067,4.327,0.006,8.655,0.038,12.982c0.055,7.36,0.067,7.377,7.629,7.444c4.161,0.037,8.325,0.107,12.482-0.023
							c4.431-0.139,6.594,2.213,6.677,6.285c0.19,9.312,0.205,18.643,0.069,27.961c-0.062,4.303-2.506,6.74-6.931,6.808
							c-4.826,0.071-9.663,0.24-14.477-0.003c-4.228-0.214-5.613,1.605-5.446,5.609c0.194,4.646-0.052,9.315,0.005,13.979
							c0.056,4.457-1.808,6.871-6.499,6.836c-8.65-0.064-17.301,0.045-25.95-0.057c-5.383-0.062-7.463-2.062-7.657-7.504
							c-0.16-4.483-0.156-9,0.203-13.469c0.323-4.022-0.841-5.758-5.142-5.43c-4.469,0.352-8.982,0.151-13.476,0.133
							c-5.683-0.031-8.543-2.771-8.693-8.529c-0.208-7.984-0.365-15.979-0.354-23.961c0.008-5.812,3.211-8.729,9.099-8.696
							c4.659,0.025,9.318,0.012,13.977,0.076c3.053,0.042,4.536-1.097,4.397-4.436c-0.214-5.151-0.158-10.32-0.024-15.477
							c0.13-5.014,2.075-6.881,7.05-6.977c4.16-0.08,8.322-0.016,12.483-0.016C81.513,63.99,81.513,63.98,81.513,63.971z
							 M123.998,111.254c-0.015,0-0.029,0-0.043,0c0-4.332-0.174-8.674,0.058-12.993c0.17-3.168-0.706-4.429-4.113-4.278
							c-5.987,0.264-11.998-0.078-17.99,0.118c-2.957,0.096-4.147-0.619-4.001-3.84c0.263-5.82-0.033-11.663,0.121-17.491
							c0.07-2.63-0.438-3.883-3.484-3.816c-8.66,0.19-17.33,0.181-25.991,0.003c-2.935-0.06-3.678,1.002-3.607,3.739
							c0.165,6.328-0.049,12.665,0.123,18.992c0.072,2.647-0.798,3.445-3.414,3.372c-5.993-0.169-11.999,0.078-17.992-0.095
							c-2.753-0.08-3.792,0.656-3.73,3.587c0.179,8.66,0.189,17.33,0.004,25.99c-0.065,3.044,1.193,3.56,3.822,3.485
							c5.661-0.153,11.342,0.185,16.99-0.129c3.641-0.2,4.482,1.104,4.343,4.511c-0.258,6.321,0.062,12.664-0.125,18.989
							c-0.086,2.9,0.965,3.679,3.734,3.635c8.995-0.143,17.996-0.148,26.991,0.003c2.704,0.046,3.388-0.914,3.335-3.456
							c-0.142-6.829,0.038-13.664-0.089-20.493c-0.044-2.374,0.706-3.205,3.11-3.146c5.662,0.138,11.34-0.17,16.991,0.115
							c3.733,0.188,5.463-0.635,5.043-4.813C123.686,119.283,123.998,115.253,123.998,111.254z"/>
						<path fill="none" d="M356.756,134.504c0,6.831-0.031,13.663,0.012,20.493c0.024,3.916-1.771,5.815-5.75,5.8
							c-13.494-0.053-26.988-0.104-40.48-0.007c-4.053,0.028-5.723-1.716-5.74-5.679c-0.074-13.651-0.259-27.305-0.413-40.957
							c-0.05-4.463,1.755-6.586,6.593-6.521c13.146,0.182,26.297,0.094,39.438-0.109c4.753-0.069,6.623,1.953,6.537,6.556
							c-0.132,6.807-0.034,13.614-0.034,20.428C356.859,134.504,356.809,134.504,356.756,134.504z M306.764,135.045
							c0.012,13.038,10.086,23.24,22.905,23.191c12.528-0.047,22.515-10.238,22.567-23.029c0.055-13.117-9.902-23.421-22.654-23.443
							C316.787,111.741,306.753,121.979,306.764,135.045z"/>
						<path fill="none" d="M366.236,133.993c0-6.821,0.047-13.644-0.021-20.464c-0.031-3.651,1.285-5.424,5.288-5.379
							c13.644,0.156,27.284,0.102,40.926,0.009c3.778-0.025,5.454,1.577,5.438,5.337c-0.068,13.309-0.062,26.615-0.075,39.925
							c-0.005,4.286-1.387,6.726-6.422,6.612c-12.969-0.291-25.95-0.266-38.923-0.09c-4.787,0.062-6.5-1.754-6.284-6.488
							C366.459,146.98,366.236,140.48,366.236,133.993z M414.236,134.855c-0.037-13.018-10.151-23.166-23.006-23.092
							c-12.494,0.069-22.439,10.312-22.469,23.133c-0.027,13.08,9.979,23.347,22.756,23.34
							C404.292,158.23,414.274,147.956,414.236,134.855z"/>
						<path d="M187.504,142.264c-4.329,0.002-8.66,0.09-12.985-0.021c-4.773-0.123-7.844-3.308-7.78-7.834
							c0.062-4.313,3.038-7.556,7.504-7.625c8.821-0.142,17.648-0.14,26.47-0.002c4.495,0.067,7.486,3.282,7.546,7.583
							c0.063,4.541-2.982,7.729-7.77,7.871C196.165,142.361,191.833,142.262,187.504,142.264z"/>
						<path d="M247.248,141.266c-4.318,0-8.641,0.084-12.956-0.021c-4.73-0.115-7.61-3.015-7.547-7.366
							c0.06-4.133,2.86-7.044,7.301-7.104c8.97-0.119,17.94-0.121,26.909,0c4.443,0.062,7.243,2.975,7.301,7.104
							c0.061,4.354-2.807,7.243-7.553,7.362C256.221,141.354,251.732,141.264,247.248,141.266z"/>
						<path d="M123.998,111.254c0,3.999-0.312,8.029,0.085,11.988c0.419,4.184-1.311,5.002-5.043,4.814
							c-5.651-0.285-11.329,0.021-16.991-0.117c-2.404-0.062-3.155,0.771-3.11,3.146c0.127,6.829-0.052,13.664,0.089,20.493
							c0.053,2.542-0.631,3.502-3.335,3.456c-8.995-0.151-17.996-0.146-26.991-0.003c-2.769,0.044-3.82-0.729-3.734-3.635
							c0.188-6.326-0.133-12.67,0.125-18.989c0.139-3.401-0.703-4.712-4.343-4.511c-5.648,0.312-11.329-0.024-16.99,0.129
							c-2.629,0.072-3.888-0.441-3.822-3.485c0.186-8.66,0.175-17.33-0.004-25.99c-0.061-2.932,0.977-3.667,3.73-3.587
							c5.993,0.173,11.999-0.074,17.992,0.095c2.615,0.074,3.486-0.724,3.414-3.372c-0.172-6.327,0.042-12.665-0.123-18.992
							c-0.071-2.737,0.672-3.799,3.607-3.739c8.661,0.178,17.331,0.188,25.991-0.003c3.047-0.067,3.554,1.186,3.484,3.816
							c-0.154,5.828,0.142,11.671-0.121,17.491c-0.146,3.221,1.045,3.936,4.001,3.84c5.992-0.195,12.003,0.146,17.99-0.118
							c3.408-0.15,4.283,1.11,4.113,4.278c-0.232,4.319-0.058,8.661-0.058,12.993C123.969,111.254,123.983,111.254,123.998,111.254z
							"/>
						<path d="M306.764,135.045c-0.011-13.066,10.023-23.304,22.818-23.281c12.752,0.022,22.709,10.326,22.654,23.443
							c-0.055,12.791-10.039,22.982-22.567,23.029C316.85,158.285,306.773,148.083,306.764,135.045z"/>
						<path d="M414.236,134.855c0.038,13.101-9.944,23.375-22.719,23.381c-12.773,0.007-22.783-10.26-22.756-23.34
							c0.024-12.82,9.975-23.062,22.469-23.133C404.085,111.689,414.199,121.843,414.236,134.855z"/>
					</g>
				</g>
			</g>
			<g>
				<g>
					<path fill="#F05133" d="M318.741,130.545c-0.23,4.209,1.524,8.396,4.771,11.107c2.694,2.252,6.733,3.438,9.691,0.961
						c3.088-2.584,3.382-8.303,1.459-11.614c-1.961-3.379-6.309-3.031-8.959-0.83c-3.288,2.729-1.378,7.354,2.119,8.665
						c3.729,1.396,8.339-2.402,8.42-6.145c0.102-4.549-5.295-8.549-9.562-6.498c-3.896,1.875-4.896,7.312-3.326,11.016
						c0.104,0.287,0.234,0.562,0.396,0.825c1.521,2.842,5.841,0.317,4.313-2.523c-0.688-1.286-0.627-3.261,0.321-4.431
						c0.97-1.192,3.13,0.451,2.782,1.734c-0.146,0.529-1.898,1.812-2.186,1.057c0.11,0.299-0.082,0.164,0.256-0.164
						c0.115-0.115,0.849-0.299,0.738-0.314c1.562,0.228,1.213,6-0.961,5.621c-3.689-0.644-5.461-5.193-5.283-8.467
						C323.918,127.32,318.917,127.339,318.741,130.545L318.741,130.545z"/>
				</g>
			</g>
			<g>
				<g>
					<path fill="#F05133" d="M329.201,128.777c-5.23,4.125-8.637,10.32-9.293,16.938c-0.104,1.059,0.835,2.188,1.835,2.411
						c8.614,1.931,12.289-11.911,7.289-17.235c-2.915-3.107-8.117-1.193-10.288,1.76c-2.152,2.928-0.014,6.922,2.242,9.014
						c2.509,2.324,6.33,3.639,9.479,1.826c4-2.303,4.046-9.027,2.719-12.789c-1.709-4.842-6.312-3.203-8.711-0.057
						c-2.646,3.463-3.724,8.858-1.75,12.83c2.182,4.387,7.232,4.773,10.707,1.93c3.625-2.973,4.104-8.705,2.03-12.619
						c-1.508-2.852-5.821-0.324-4.315,2.523c0.891,1.68,0.701,3.479-0.142,5.142c-0.562,1.114-1.854,2.552-3.108,1.536
						c-2.252-1.815-0.982-5.455,0.104-7.562c0.269-0.513,0.584-1.009,0.958-1.445c0.29-0.344,1.018-0.595,0.223-0.483
						c-0.91,0.118-0.863-0.802-0.516,0.53c0.246,0.933,0.216,1.92,0.207,2.873c-0.02,1.562-0.312,3.822-2.212,3.394
						c-1.438-0.328-3.046-1.606-3.593-3c-0.451-1.156,0.852-2.271,2.34-1.922c2.174,0.512,0.637,9.604-2.336,8.938
						c0.607,0.803,1.224,1.604,1.834,2.408c0.525-5.33,3.689-10.146,7.826-13.404C335.268,130.316,331.703,126.805,329.201,128.777
						L329.201,128.777z"/>
				</g>
			</g>
			<g>
				<g>
					<path fill="#F05133" d="M322.335,121.422c-2.294,0.699-4.742,1.907-6.252,3.827c-1.826,2.323-1.665,5.302,0.522,7.353
						c4.011,3.758,10.752-0.354,11.777-4.961c0.633-2.824-0.922-5.638-3.888-5.931c-2.812-0.278-4.533,2.897-4.688,5.226
						c-0.172,2.565,1.762,5.271,4.521,4.969c2.694-0.295,4.496-2.574,4.505-5.232c0.004-1.125-0.77-2.104-1.835-2.411
						c-2.847-0.827-4.683,0.938-7.33,1.333c-1.351,0.203-2.074,1.887-1.746,3.076c0.396,1.434,1.729,1.948,3.076,1.746
						c1.463-0.225,3.229-1.753,4.67-1.333c-0.61-0.808-1.226-1.604-1.835-2.411c-0.002,0.499-0.171,0.312,0.232,0.27
						c0.402-0.045,0.789,0.635,0.768,0.396c-0.044-0.438-0.062-0.465,0.15-0.822c-0.301,0.506-1.291-0.064-1.521-0.369
						c0.104,0.133,0.038,0.465,0.03,0.5c-0.146,0.643-0.71,1.235-1.224,1.615c-0.345,0.258-2.453,1.448-2.511,0.352
						c-0.021-0.357,1.166-1.068,1.438-1.241c0.77-0.493,1.597-0.854,2.468-1.118C326.74,125.307,325.428,120.48,322.335,121.422
						L322.335,121.422z"/>
				</g>
			</g>
			<g>
				<g>
					<path fill="#F05133" d="M315.732,116.564c-4.479,3.9-6.637,12.306-1.908,16.92c5.689,5.556,14.965,0.771,17.668-5.395
						c1.281-2.923-3.025-5.471-4.318-2.521c-1.386,3.16-7.119,8.068-10.312,3.884c-2.152-2.829,0.227-7.447,2.406-9.354
						C321.701,117.977,318.148,114.455,315.732,116.564L315.732,116.564z"/>
				</g>
			</g>
			<path fill="#F05133" d="M345.333,129.167c-0.472-3.735-2.496-5.901-5.94-7.241c-0.07-0.027-0.146-0.047-0.222-0.072
				c-0.091-0.289-0.203-0.582-0.354-0.877c-1.672-3.281-4.674-4.599-8.008-4.599c-0.906-2.323-3.518-3.743-5.973-3.032
				c-0.943,0.273-1.861,0.625-2.792,0.94c-0.483,0.165-0.979,0.303-1.476,0.425c-0.245,0.004-0.491-0.012-0.737-0.044
				c-2.71-0.351-5,2.54-5,5c0,0.171,0.032,0.321,0.048,0.483c-2.137,3.689,2.195,9.404,6.977,6.834
				c1.304-0.699,3.971,0.033,5.479-0.151c1.021-0.125,2.021-0.302,3.033-0.489c0.043,0.072,0.083,0.148,0.128,0.217
				c-1.191,3.979,0.357,8.489,1.02,12.438c0.446,2.688,3.729,4.158,6.148,3.492c2.829-0.778,3.938-3.468,3.492-6.15
				c-0.116-0.698-0.27-1.394-0.408-2.089c0.312-0.061,0.613-0.135,0.916-0.261C343.542,133.202,345.631,131.531,345.333,129.167z"/>
			<ellipse fill="#E71E25" stroke="#F05133" stroke-miterlimit="10" cx="329.582" cy="134.917" rx="23.798" ry="23.082"/>
			<ellipse fill="none" cx="330.75" cy="135.249" rx="24.917" ry="24.584"/>
			<ellipse fill="#FFFFFF" cx="391.249" cy="134.75" rx="23.798" ry="23.082"/>
			<ellipse fill="#E71E25" stroke="#F05133" stroke-miterlimit="10" cx="392.082" cy="134.917" rx="23.798" ry="23.082"/>
		</g>
		<path id="LinkedIn__x28_alt_x29_" fill="#FFFFFF" d="M90.824,130.232H74.099c-0.801,0-1.45,0.629-1.45,1.406v16.812
			c0,0.776,0.649,1.405,1.45,1.405h16.725c0.801,0,1.449-0.629,1.449-1.405v-16.812C92.273,130.861,91.625,130.232,90.824,130.232z
			 M78.599,146.66h-2.965v-8.86h2.965V146.66z M77.116,136.589h-0.02c-0.994,0-1.639-0.68-1.639-1.53
			c0-0.869,0.664-1.529,1.677-1.529c1.014,0,1.638,0.66,1.658,1.529C78.792,135.909,78.149,136.589,77.116,136.589z M89.287,146.66
			h-2.964v-4.74c0-1.191-0.43-2.004-1.501-2.004c-0.82,0-1.307,0.548-1.521,1.077c-0.08,0.188-0.099,0.452-0.099,0.718v4.949h-2.964
			c0,0,0.039-8.029,0-8.86h2.964v1.257c0.394-0.604,1.097-1.466,2.671-1.466c1.951,0,3.414,1.267,3.414,3.988V146.66z
			 M83.183,139.084c0.005-0.009,0.012-0.02,0.019-0.027v0.027H83.183z"/>
	</g>
	<g id="Twitter">
		<path id="Twitter__x28_alt_x29_" fill="#FFFFFF" d="M91.498,81.111c1.488-0.123,2.498-0.8,2.886-1.718
			c-0.537,0.33-2.204,0.689-3.124,0.347c-0.045-0.216-0.095-0.422-0.145-0.606c-0.702-2.575-3.103-4.65-5.619-4.399
			c0.204-0.083,0.41-0.159,0.616-0.228c0.277-0.1,1.902-0.364,1.646-0.938c-0.216-0.504-2.201,0.382-2.575,0.497
			c0.494-0.186,1.31-0.505,1.397-1.071c-0.756,0.104-1.498,0.461-2.072,0.98c0.207-0.223,0.364-0.494,0.397-0.787
			c-2.016,1.288-3.194,3.886-4.147,6.404c-0.749-0.726-1.412-1.296-2.007-1.613c-1.669-0.896-3.666-1.829-6.799-2.993
			c-0.096,1.037,0.513,2.416,2.267,3.332c-0.38-0.051-1.075,0.062-1.631,0.196c0.226,1.188,0.966,2.166,2.968,2.639
			c-0.915,0.061-1.388,0.269-1.816,0.718c0.417,0.826,1.434,1.798,3.263,1.599c-2.034,0.876-0.83,2.5,0.825,2.258
			c-2.823,2.915-7.273,2.701-9.829,0.263c6.672,9.092,21.177,5.377,23.338-3.381c1.619,0.014,2.571-0.561,3.162-1.194
			C93.567,81.573,92.215,81.41,91.498,81.111z"/>
		<path id="Github__x28_alt_x29_" fill="#FFFFFF" d="M118.585,99.962c0.393,0.894,0.648,2.376,0.268,3.462
			c1.554,1.327,2.089,4.555,1.338,7.191c2.215,0.169,4.854-0.082,6.558,0.599c-1.593-0.205-3.768-0.606-5.822-0.467
			c-0.389,0.026-0.965-0.015-0.937,0.532c2.377,0.188,4.74,0.391,6.692,1c-1.936-0.316-4.287-0.799-6.692-0.865
			c-0.994,1.961-2.994,2.925-5.755,3.128c0.297,0.646,0.865,0.892,1.004,1.931c0.207,1.553-0.324,3.825,0.2,4.86
			c0.251,0.495,0.661,0.509,0.937,0.933c-0.676,0.801-2.353-0.09-2.543-0.933c-0.327-1.444,0.498-3.683-0.401-4.66
			c0.063,1.574-0.373,3.785,0.067,5.192c0.173,0.553,0.673,0.767,0.535,1.266c-3.143,0.319-1.83-4.068-2.343-6.658
			c-0.474,0.033-0.266,0.711-0.268,1c-0.013,2.527,0.518,5.996-2.208,5.658c-0.08-0.531,0.366-0.713,0.535-1.197
			c0.497-1.424-0.093-3.543,0.135-5.261c-1.041,0.783,0.109,3.522-0.536,4.927c-0.372,0.811-1.568,1.159-2.476,0.799
			c0.118-0.603,0.739-0.504,1.003-1.062c0.368-0.78,0.002-1.905,0.134-3.062c-1.926,0.386-3.419-0.058-4.15-1.268
			c-0.327-0.543-0.408-1.183-0.803-1.664c-0.394-0.479-1.022-0.546-1.204-1.195c2.385-0.573,2.476,2.455,4.618,2.527
			c0.657,0.023,0.999-0.188,1.606-0.333c0.17-0.764,0.534-1.333,1.071-1.729c-2.665-0.363-4.866-1.193-5.889-3.192
			c-2.423,0.119-4.64,0.44-6.693,0.933c1.864-0.679,4.163-0.92,6.627-1c-0.146-0.873-1.418-0.633-2.208-0.6
			c-1.468,0.062-3.317,0.247-4.484,0.467c1.692-0.604,4.066-0.527,6.358-0.531c-0.701-2.198-0.458-5.688,1.071-6.989
			c-0.433-1.093-0.299-2.88,0.268-3.729c1.708,0.076,2.743,0.821,3.815,1.531c1.33-0.378,2.729-0.562,4.551-0.466
			c0.766,0.041,1.563,0.387,2.141,0.331c0.566-0.055,1.19-0.688,1.74-0.934C117.16,100.111,117.766,99.991,118.585,99.962z"/>
	</g>
	<g id="Github">
	</g>
	<text transform="matrix(1 0 0 1 410.5 173.5)" fill="#E71E25" font-family="'MyriadPro-Regular'" font-size="12">A</text>
	<text transform="matrix(1 0 0 1 227.666 98)" fill="#E71E25" font-family="'Avenir-Roman'" font-size="12">contact</text>
	<text transform="matrix(1 0 0 1 349.166 173.501)" fill="#E71E25" font-family="'MyriadPro-Regular'" font-size="12">B</text>
	<text transform="matrix(1 0 0 1 174.3335 98.667)" fill="#E71E25" font-family="'Avenir-Roman'" font-size="12">skills</text>
</g>
<g id="Layer_2_1_">
	<g id="Layer_111">
		<g>
			<path fill="#58595B" d="M37.771,112.482"/>
			<path fill="#58595B" d="M68.951,112.482"/>
			<g>
				<path fill="#FFFFFF" d="M59.338,102.738H47.383c-2.077,0-3.766,1.688-3.766,3.767v3.978v7.978c0,2.078,1.689,3.767,3.766,3.767
					h11.955c2.077,0,3.767-1.688,3.767-3.767v-7.978v-3.978C63.104,104.428,61.415,102.738,59.338,102.738z M60.419,104.986
					l0.43-0.004v0.431v2.871l-3.291,0.013l-0.012-3.304L60.419,104.986z M50.58,110.482c0.625-0.864,1.637-1.43,2.781-1.43
					c1.145,0,2.157,0.564,2.781,1.43c0.406,0.562,0.649,1.254,0.649,2c0,1.89-1.54,3.429-3.43,3.429
					c-1.892,0-3.431-1.539-3.431-3.429C49.93,111.736,50.174,111.046,50.58,110.482z M61.206,118.459
					c0,1.031-0.838,1.869-1.868,1.869H47.383c-1.031,0-1.867-0.838-1.867-1.869v-7.977h2.908c-0.251,0.617-0.392,1.293-0.392,2
					c0,2.938,2.39,5.328,5.328,5.328s5.329-2.392,5.329-5.328c0-0.707-0.143-1.383-0.394-2h2.91L61.206,118.459L61.206,118.459z"/>
			</g>
		</g>
	</g>
	<g id="Layer_1_4_">
	</g>
</g>
</svg>
