<?xml version="1.0" encoding="utf-8"?>
<!-- Generator: Adobe Illustrator 16.0.0, SVG Export Plug-In . SVG Version: 6.00 Build 0)  -->
<!DOCTYPE svg PUBLIC "-//W3C//DTD SVG 1.1//EN" "http://www.w3.org/Graphics/SVG/1.1/DTD/svg11.dtd">
<svg version="1.1" id="Layer_1" xmlns="http://www.w3.org/2000/svg" xmlns:xlink="http://www.w3.org/1999/xlink" x="0px" y="0px"
	 width="200px" height="200px" viewBox="0 0 200 200" enable-background="new 0 0 200 200" xml:space="preserve">
<g>
	<g>
		<path d="M185.822,29.515c0,38.964,0,77.927,0,116.891c-1.935,0.53-3.867,1.507-5.806,1.521
			c-17.377,0.119-34.755,0.069-52.133,0.069c-1.471,0-2.941,0-4.376,0c0,8.254,0,15.942,0,24.025c13.31,0,26.319,0,39.512,0
			c0,4.349,0,8.293,0,12.414c-40.331,0-80.425,0-120.661,0c0-4.201,0-8.147,0-12.568c13.122,0,25.985,0,38.814,0
			c0-8.192,0-15.906,0-23.871c-1.793,0-3.305,0-4.817,0c-17.239,0-34.478,0.05-51.716-0.069c-1.938-0.014-3.87-0.99-5.805-1.521
			c0-38.964,0-77.927,0-116.891c1.816-0.497,3.632-1.425,5.45-1.427c52.029-0.077,104.057-0.077,156.086,0
			C182.188,28.09,184.005,29.018,185.822,29.515z M102.337,38.779c-22.108,0-44.217-0.002-66.326,0.001
			c-5.643,0.001-5.898,0.254-5.898,5.834c-0.003,28.366-0.002,56.731,0,85.098c0,5.832,0.114,5.96,5.747,5.96
			c44.079,0.004,88.157,0.004,132.235,0c5.741-0.001,5.931-0.19,5.931-5.809c0.004-28.366,0.003-56.731,0.001-85.098
			c0-5.871-0.116-5.985-6.196-5.986C145.998,38.777,124.168,38.779,102.337,38.779z"/>
		<path fill-rule="evenodd" clip-rule="evenodd" fill="#FFFFFF" d="M18.835,146.405c1.935,0.53,3.867,1.507,5.805,1.521
			c17.238,0.119,34.477,0.069,51.716,0.069c1.512,0,3.024,0,4.817,0c0,7.965,0,15.679,0,23.871c-12.83,0-25.692,0-38.814,0
			c0,4.421,0,8.367,0,12.568c40.236,0,80.33,0,120.661,0c0-4.121,0-8.065,0-12.414c-13.192,0-26.202,0-39.512,0
			c0-8.083,0-15.771,0-24.025c1.435,0,2.905,0,4.376,0c17.378,0,34.756,0.05,52.133-0.069c1.938-0.014,3.871-0.99,5.806-1.521
			c0,14.473,0,28.945,0,43.417c-55.662,0-111.325,0-166.987,0C18.835,175.351,18.835,160.878,18.835,146.405z"/>
		<path fill-rule="evenodd" clip-rule="evenodd" fill="#FFFFFF" d="M185.822,29.515c-1.817-0.497-3.634-1.425-5.451-1.427
			c-52.029-0.077-104.058-0.077-156.086,0c-1.817,0.002-3.633,0.931-5.45,1.427c0-2.227,0-4.453,0-6.68
			c55.662,0,111.325,0,166.987,0C185.822,25.062,185.822,27.288,185.822,29.515z"/>
		<path fill-rule="evenodd" clip-rule="evenodd" fill="#FFFFFF" d="M102.337,38.779c21.831,0,43.661-0.002,65.492,0
			c6.08,0.001,6.196,0.115,6.196,5.986c0.002,28.366,0.003,56.731-0.001,85.098c0,5.618-0.189,5.808-5.931,5.809
			c-44.078,0.004-88.156,0.004-132.235,0c-5.633,0-5.746-0.128-5.747-5.96c-0.002-28.366-0.003-56.732,0-85.098
			c0-5.58,0.255-5.833,5.898-5.834C58.12,38.776,80.229,38.779,102.337,38.779z"/>
	</g>
</g>
</svg>
