<?xml version="1.0" encoding="utf-8"?>
<!-- Generator: Adobe Illustrator 16.0.0, SVG Export Plug-In . SVG Version: 6.00 Build 0)  -->
<!DOCTYPE svg PUBLIC "-//W3C//DTD SVG 1.1//EN" "http://www.w3.org/Graphics/SVG/1.1/DTD/svg11.dtd">
<svg version="1.1" id="Layer_1" xmlns="http://www.w3.org/2000/svg" xmlns:xlink="http://www.w3.org/1999/xlink" x="0px" y="0px"
	 width="200px" height="200px" viewBox="0 0 200 200" enable-background="new 0 0 200 200" xml:space="preserve">
<g id="JSJBgm_1_">
	<g>
		<g>
			<path fill="#FFFFFF" d="M54,146c0-30,0-60,0-90c31,0,62,0,93,0c0,30,0,60,0,90C116,146,85,146,54,146z M99.434,135.688
				c2.999,0,6.005,0.128,8.996-0.029c4.982-0.262,9.885-1.571,12.631-5.897c2.731-4.303,4.986-8.647,10.254-10.392
				c0.916-0.303,1.609-1.669,2.141-2.683c3.729-7.124,5.497-14.71,3.751-22.633c-4.122-18.703-18.505-29.763-38.188-29.745
				c-20.019,0.018-37.906,18.227-36.59,38.072c0.523,7.891,0.903,16.773,11.159,19.646c0.773,0.216,1.358,1.717,1.71,2.73
				c2.5,7.209,7.901,10.387,15.141,10.894C93.423,135.86,96.435,135.686,99.434,135.688z"/>
			<path fill-rule="evenodd" clip-rule="evenodd" d="M99.434,135.687c-2.999-0.001-6.011,0.174-8.995-0.035
				c-7.24-0.507-12.642-3.685-15.141-10.894c-0.352-1.014-0.937-2.515-1.71-2.73c-10.256-2.873-10.636-11.756-11.159-19.646
				c-1.316-19.845,16.571-38.054,36.59-38.072c19.684-0.018,34.066,11.042,38.188,29.745c1.746,7.923-0.021,15.509-3.751,22.633
				c-0.531,1.014-1.225,2.38-2.141,2.683c-5.268,1.744-7.522,6.089-10.254,10.392c-2.746,4.326-7.648,5.636-12.631,5.897
				C105.438,135.815,102.433,135.688,99.434,135.687z M100.595,71.554c-10.94-0.062-19.824,8.953-19.75,20.041
				c0.07,10.369,8.709,19.373,18.765,19.558c10.317,0.189,19.501-9.08,19.649-19.83C119.411,80.318,111.193,71.614,100.595,71.554z
				 M90.178,115.202c-1.433,0.229-3.135,0.241-4.636,0.796c-3.484,1.288-8.271,1.763-8.544,6.415
				c-0.269,4.574,2.683,8.118,6.773,10.276c1.568,0.826,3.406,1.461,5.157,1.562c5.967,0.343,11.954,0.641,17.924,0.511
				c5.298-0.114,10.163-1.676,13.41-6.384c3.627-5.26,2.606-8.952-3.374-11.254c-2.551-0.982-5.301-1.452-7.782-2.107
				c-0.506,4.455-0.954,8.398-1.401,12.341c-0.9-0.031-1.801-0.062-2.702-0.094c-0.248-4.042-0.497-8.084-0.764-12.438
				c-3.032,0-6.408,0-9.242,0c-0.373,4.553-0.701,8.562-1.029,12.57c-0.885,0.005-1.771,0.01-2.656,0.014
				C90.953,123.535,90.593,119.661,90.178,115.202z M135.835,101.658c-0.661-3.68-1.065-6.955-1.919-10.108
				c-0.285-1.054-1.663-2.41-2.646-2.501c-0.912-0.084-2.474,1.127-2.874,2.121c-2.69,6.679-2.778,13.502-0.257,20.256
				c0.349,0.936,1.68,2.228,2.395,2.133c1.057-0.141,2.517-1.193,2.842-2.177C134.447,108.143,135.086,104.759,135.835,101.658z
				 M73.902,100.968c-0.67-3.366-1.128-6.627-2.055-9.748c-0.29-0.975-1.775-2.018-2.846-2.188
				c-0.707-0.112-2.048,1.112-2.429,2.022c-2.795,6.68-2.728,13.506-0.324,20.26c0.353,0.992,1.896,2.236,2.805,2.172
				c0.978-0.068,2.381-1.389,2.682-2.428C72.686,107.771,73.208,104.36,73.902,100.968z"/>
			<path fill-rule="evenodd" clip-rule="evenodd" fill="#FFFFFF" d="M100.595,71.554c10.598,0.06,18.816,8.764,18.665,19.768
				c-0.147,10.75-9.332,20.02-19.649,19.83c-10.056-0.185-18.695-9.188-18.765-19.558C80.771,80.507,89.655,71.493,100.595,71.554z"
				/>
			<path fill-rule="evenodd" clip-rule="evenodd" fill="#FFFFFF" d="M90.178,115.202c0.415,4.459,0.774,8.333,1.134,12.208
				c0.885-0.004,1.771-0.009,2.656-0.014c0.328-4.008,0.656-8.018,1.029-12.57c2.834,0,6.21,0,9.242,0
				c0.267,4.354,0.516,8.396,0.764,12.438c0.901,0.031,1.802,0.062,2.702,0.094c0.447-3.942,0.896-7.886,1.401-12.341
				c2.481,0.655,5.231,1.125,7.782,2.107c5.98,2.302,7.001,5.994,3.374,11.254c-3.247,4.708-8.112,6.27-13.41,6.384
				c-5.97,0.13-11.958-0.168-17.924-0.511c-1.751-0.102-3.589-0.736-5.157-1.562c-4.091-2.158-7.042-5.702-6.773-10.276
				c0.273-4.652,5.061-5.127,8.544-6.415C87.043,115.443,88.745,115.432,90.178,115.202z"/>
			<path fill-rule="evenodd" clip-rule="evenodd" fill="#FFFFFF" d="M135.835,101.658c-0.749,3.101-1.388,6.484-2.46,9.724
				c-0.325,0.983-1.785,2.036-2.842,2.177c-0.715,0.095-2.046-1.197-2.395-2.133c-2.521-6.754-2.434-13.578,0.257-20.256
				c0.4-0.994,1.962-2.205,2.874-2.121c0.983,0.091,2.361,1.447,2.646,2.501C134.77,94.703,135.174,97.978,135.835,101.658z"/>
			<path fill-rule="evenodd" clip-rule="evenodd" fill="#FFFFFF" d="M73.902,100.968c-0.694,3.393-1.216,6.804-2.167,10.091
				c-0.301,1.039-1.704,2.359-2.682,2.428c-0.909,0.064-2.452-1.18-2.805-2.172c-2.404-6.754-2.472-13.581,0.324-20.26
				c0.381-0.91,1.722-2.134,2.429-2.022c1.071,0.169,2.557,1.213,2.846,2.188C72.774,94.341,73.232,97.602,73.902,100.968z"/>
		</g>
	</g>
</g>
</svg>
