<?xml version="1.0" encoding="utf-8"?>
<!-- Generator: Adobe Illustrator 16.0.0, SVG Export Plug-In . SVG Version: 6.00 Build 0)  -->
<!DOCTYPE svg PUBLIC "-//W3C//DTD SVG 1.1//EN" "http://www.w3.org/Graphics/SVG/1.1/DTD/svg11.dtd">
<svg version="1.1" id="Layer_1" xmlns="http://www.w3.org/2000/svg" xmlns:xlink="http://www.w3.org/1999/xlink" x="0px" y="0px"
	 width="200px" height="200px" viewBox="0 0 200 200" enable-background="new 0 0 200 200" xml:space="preserve">
<g id="N0ymMX_1_">
	<g>
		<g>
			<path fill="#FFFFFF" d="M144,145c0-27.666,0-55.333,0-83c-30.334,0-60.667,0-91,0c0,27.667,0,55.334,0,83
				C83.333,145,113.666,145,144,145z M117.893,120.621c-6.123,11.266-21.282,16.833-34.598,12.928
				c-12.002-3.519-23.405-15.227-22.147-32.77c0.91-12.69,11.695-25.179,24.494-27.423c13.808-2.421,27.404,3.583,31.05,12.395
				c-9.541,5.488-19.106,10.989-29.611,17.032C97.888,109.039,107.753,114.75,117.893,120.621z M136.816,102.568
				c0.076,5.064-3.573,9.003-8.477,9.145c-4.904,0.143-8.945-3.697-9.066-8.614c-0.125-5.127,3.404-8.805,8.555-8.915
				C133.148,94.07,136.739,97.42,136.816,102.568z"/>
			<path fill-rule="evenodd" clip-rule="evenodd" d="M117.893,120.621c-10.14-5.871-20.005-11.582-30.812-17.839
				c10.505-6.042,20.07-11.544,29.611-17.032c-3.646-8.811-17.243-14.816-31.05-12.395C72.842,75.6,62.058,88.089,61.147,100.779
				c-1.258,17.543,10.145,29.251,22.147,32.77C96.611,137.454,111.77,131.887,117.893,120.621z"/>
			<path fill-rule="evenodd" clip-rule="evenodd" d="M136.816,102.568c-0.077-5.148-3.668-8.499-8.988-8.385
				c-5.15,0.11-8.68,3.788-8.555,8.915c0.121,4.917,4.162,8.757,9.066,8.614C133.243,111.571,136.893,107.633,136.816,102.568z"/>
		</g>
	</g>
</g>
</svg>
