<?xml version="1.0" encoding="utf-8"?>
<!-- Generator: Adobe Illustrator 16.0.0, SVG Export Plug-In . SVG Version: 6.00 Build 0)  -->
<!DOCTYPE svg PUBLIC "-//W3C//DTD SVG 1.1//EN" "http://www.w3.org/Graphics/SVG/1.1/DTD/svg11.dtd">
<svg version="1.1" id="Layer_1" xmlns="http://www.w3.org/2000/svg" xmlns:xlink="http://www.w3.org/1999/xlink" x="0px" y="0px"
	 width="200px" height="200px" viewBox="0 0 200 200" enable-background="new 0 0 200 200" xml:space="preserve">
<g id="esT953_1_">
	<g>
		<g>
			<path fill="#FFFFFF" d="M56,145c0-29.334,0-58.667,0-88c29.667,0,59.334,0,89,0c0,29.333,0,58.666,0,88
				C115.334,145,85.667,145,56,145z M100.634,136.832c16.795,1.228,35.708-12.762,36.018-35.363
				c0.271-19.819-15.912-36.122-35.536-36.159C81.442,65.272,65.299,81.47,65.31,101.237
				C65.32,121.072,80.924,136.795,100.634,136.832z"/>
			<path fill-rule="evenodd" clip-rule="evenodd" d="M100.634,136.832c-19.71-0.037-35.314-15.76-35.325-35.595
				C65.299,81.47,81.442,65.272,101.116,65.31c19.624,0.037,35.808,16.34,35.536,36.159
				C136.343,124.07,117.43,138.06,100.634,136.832z M81.699,114.76c-4.84-3.065-9.622-6.094-14.403-9.123
				c0.048,1.871,0.626,3.398,1.729,4.246c2.754,2.119,5.868,3.772,8.604,5.912c2.202,1.723,4.578,3.576,5.973,5.91
				c3.649,6.107,11.705,9.299,16.434,4.619c4.755-4.703,10.5-4.793,15.843-6.911c5.354-2.123,10.388-5.057,15.566-7.626
				c1.593-0.789,3.202-1.547,4.804-2.32c-0.646-0.744-1.295-1.487-1.941-2.23c-8.26,6.014-16.934,10.84-27.441,10.588
				c-1.791-8.9-5.207-12.811-11.506-13.527C89.763,103.66,85.715,106.633,81.699,114.76z"/>
			<path fill-rule="evenodd" clip-rule="evenodd" fill="#FFFFFF" d="M81.699,114.76c4.016-8.127,8.064-11.1,13.661-10.463
				c6.299,0.717,9.715,4.627,11.506,13.527c10.508,0.252,19.182-4.574,27.441-10.588c0.646,0.743,1.295,1.486,1.941,2.23
				c-1.602,0.773-3.211,1.531-4.804,2.32c-5.179,2.569-10.212,5.503-15.566,7.626c-5.343,2.118-11.088,2.208-15.843,6.911
				c-4.729,4.68-12.785,1.488-16.434-4.619c-1.396-2.334-3.771-4.188-5.973-5.91c-2.736-2.14-5.85-3.793-8.604-5.912
				c-1.102-0.848-1.68-2.375-1.729-4.246C72.077,108.666,76.858,111.694,81.699,114.76z M93.553,109.28
				c-4.041,0.047-6.633,2.824-6.599,7.07c0.034,4.264,2.605,6.77,6.853,6.679c4.035-0.086,6.961-3.039,6.865-6.929
				C100.579,112.404,97.274,109.237,93.553,109.28z"/>
			<path fill-rule="evenodd" clip-rule="evenodd" d="M93.553,109.28c3.721-0.043,7.026,3.124,7.118,6.82
				c0.097,3.89-2.83,6.843-6.865,6.929c-4.247,0.091-6.818-2.415-6.853-6.679C86.919,112.104,89.512,109.327,93.553,109.28z
				 M93.777,110.904c-0.814,0.011-1.628,0.021-2.442,0.031c-1.199,1.949-3.448,3.987-3.293,5.822
				c0.146,1.716,3.112,4.697,4.351,4.47c1.941-0.356,4.551-2.768,4.855-4.638C97.52,114.928,95.042,112.817,93.777,110.904z"/>
			<path fill-rule="evenodd" clip-rule="evenodd" fill="#FFFFFF" d="M93.777,110.904c1.265,1.913,3.743,4.023,3.472,5.686
				c-0.305,1.87-2.915,4.281-4.855,4.638c-1.239,0.228-4.206-2.754-4.351-4.47c-0.155-1.835,2.094-3.873,3.293-5.822
				C92.149,110.925,92.963,110.915,93.777,110.904z"/>
		</g>
	</g>
</g>
</svg>
